<svg width="587" height="283" viewBox="0 0 587 283" fill="none" xmlns="http://www.w3.org/2000/svg">
<path d="M323.587 23.1624C323.586 20.0664 324.803 17.0933 326.977 14.8799C329.151 12.6665 332.109 11.3889 335.217 11.3208C338.374 11.3562 341.392 12.6215 343.623 14.8455C345.855 17.0695 347.122 20.0754 347.155 23.219C347.077 26.3151 345.784 29.2575 343.552 31.4144C341.32 33.5713 338.328 34.7706 335.217 34.7549C332.136 34.737 329.187 33.5096 327.009 31.3391C324.832 29.1686 323.602 26.2304 323.587 23.1624ZM416.312 48.2606C421.928 48.2606 425.623 51.4077 425.623 58.2342C425.623 62.0832 424.043 68.5474 420.7 77.6493C416.153 89.8871 411.389 103.88 406.296 119.785C404.022 112.098 399.622 99.8494 394.188 85.8229L389.527 72.9172C386.889 65.7512 385.479 60.1587 385.479 56.4795C385.479 51.4077 387.946 48.5549 392.687 48.0907V45.8266H352.771V48.0907C358.217 48.6115 362.605 53.6832 368.403 69.0795L393.688 135.702C397.03 144.442 396.678 152.31 392.642 159.476C389.652 165.77 385.616 168.918 380.693 168.918C374.554 168.918 371.382 166.291 371.382 160.868C371.382 158.774 375.429 154.574 375.429 150.555C375.429 144.963 371.041 142.336 366.118 142.336C359.297 142.336 354.749 147.057 354.749 154.223C354.92 164.717 363.844 173.638 375.827 173.638C381.966 174.159 386.889 171.012 390.22 168.216C392.335 166.642 394.961 161.219 396.371 158.604C397.44 156.527 398.322 154.36 399.008 152.129C400.236 149.151 400.941 146.706 401.464 145.133C401.987 143.559 403.044 140.933 404.272 136.914L407.08 127.993C414.641 104.559 421.86 84.1022 428.681 66.7927C432.728 56.8304 437.947 50.9436 440.584 49.6643C442.008 48.9061 443.543 48.3751 445.132 48.0907V45.8266H416.346L416.312 48.2606ZM139.081 130.982C133.988 130.11 129.6 125.559 129.6 115.936V5.36197e-05L100.62 6.29441V8.7397C105.532 8.21894 110.454 12.5888 110.454 21.8605V115.936C110.454 124.993 105.532 130.28 100.62 130.982C100.143 131.061 99.6768 131.117 99.2334 131.151C96.7201 131.322 94.203 130.879 91.9005 129.861C87.7121 127.912 84.2499 124.695 82.0095 120.668L68.5942 99.306C65.7751 94.8169 61.5743 91.3554 56.6182 89.4377C51.6622 87.5199 46.2164 87.2487 41.0929 88.6644L56.1908 72.0455C67.6165 59.4568 78.1441 51.4077 88.1601 48.0907V45.8266H54.9629V48.0907C63.5692 51.4077 63.0462 58.7549 53.2121 70.3021L31.9637 94.9588V5.36197e-05L2.98438 6.29441V8.7397C7.9071 8.7397 12.8185 13.6416 12.8185 22.2114V115.936C12.8185 126.261 8.07764 130.28 2.98438 130.982V133.246H41.4453V130.982C35.1242 130.11 31.9637 125.208 31.9637 115.936V98.6268L40.2175 89.5701L60.2381 122.265C64.9789 130.189 69.3332 133.28 76.3933 133.28H143.174V131.491C143.174 131.491 141.31 131.321 139.081 130.982ZM228.236 131.253V133.517C228.236 133.517 208.523 140.604 202.565 128.604C200.997 125.43 200.147 121.952 200.075 118.415C194.63 129.6 182.692 135.555 171.449 135.555C157.226 135.555 147.04 128.91 147.04 114.397C147.049 110.745 148.149 107.178 150.2 104.151C154.418 97.8569 159.295 94.5399 168.47 91.0418C173.017 89.2871 176.894 88.0644 179.839 87.1927C182.783 86.321 186.66 85.438 191.208 84.5663L199.984 82.472V71.9323C199.984 54.4417 192.436 46.5738 181.897 46.5738C173.643 46.5738 168.902 51.9964 168.902 58.2908C168.902 61.7889 171.358 66.8606 171.358 70.5285C171.358 75.4305 166.969 78.9286 160.819 78.9286C155.032 78.9286 151.519 74.2078 151.519 67.9134C151.519 61.438 154.679 55.8455 161.171 50.9323C167.399 46.1196 175.071 43.5319 182.954 43.5851C207.602 43.5851 218.379 55.2342 218.755 80.8078V119.842C218.891 122.389 219.607 132.623 228.236 131.253ZM200.075 85.0418C199.018 85.5739 196.562 86.4456 192.526 88.0192L184.443 90.9965C182.42 91.9248 180.93 92.7399 177.952 94.3135C175.657 95.3953 173.575 96.8749 171.801 98.6833C168.828 102.029 167.095 106.288 166.89 110.751C166.89 121.076 172.506 126.668 181.112 126.668C185.501 126.668 189.718 124.914 193.754 121.597C197.972 118.268 200.075 113.548 200.075 107.785V85.0418ZM525.226 89.5701C525.311 95.6019 524.188 101.59 521.921 107.184C519.655 112.779 516.291 117.867 512.026 122.151C507.989 126.405 503.122 129.793 497.723 132.109C492.325 134.424 486.509 135.619 480.631 135.619C474.753 135.619 468.937 134.424 463.539 132.109C458.141 129.793 453.274 126.405 449.236 122.151C440.742 113.423 436.066 101.7 436.23 89.5475C436.14 83.558 437.244 77.6102 439.479 72.0486C441.713 66.4871 445.033 61.4222 449.247 57.1474C453.253 52.8389 458.109 49.4013 463.512 47.0503C468.914 44.6993 474.747 43.4857 480.643 43.4857C486.539 43.4857 492.371 44.6993 497.774 47.0503C503.176 49.4013 508.033 52.8389 512.038 57.1474C516.313 61.3863 519.686 66.4406 521.954 72.0077C524.222 77.5749 525.339 83.5405 525.237 89.5475L525.226 89.5701ZM496.519 58.5964C493.04 51.804 488.459 47.8757 483.115 46.8002C472.247 44.6266 462.651 55.7436 459.07 73.4267C457.525 81.3562 457.142 89.467 457.933 97.506C458.714 105.552 460.96 113.389 464.561 120.634C468.04 127.427 472.622 131.366 477.965 132.431C488.834 134.616 498.714 123.012 502.317 105.159C505.376 90.2154 503.852 72.0455 496.519 58.5964ZM345.404 115.936V45.8153H283.591V47.9209C291.845 49.1436 295.767 55.3474 292.016 65.4002C272.689 117.691 273.928 115.348 272.689 119.536C271.461 115.517 268.653 105.623 264.082 93.2041C259.512 80.7852 256.511 72.5776 255.374 68.8983C250.633 54.3851 252.213 48.9624 259.921 48.0907V45.8266H219.835V48.0907C225.815 49.3134 231.078 56.1398 235.467 68.3776L241.617 84.2946C248.37 101.48 256.306 125.219 258.966 133.257H272.279C276.565 120.804 293.755 71.1512 296.052 66.1021C298.53 60.3512 301.35 55.9927 304.499 52.9813C307.711 49.9012 311.966 48.132 316.425 48.0228C316.425 48.0228 326.077 47.604 326.077 57.3059V115.936C326.077 125.74 321.336 130.28 316.425 130.982V133.246H354.704V130.982C349.61 130.28 345.404 125.74 345.404 115.936Z" fill="white"/>
<path d="M539.305 119.266C537.787 117.748 535.721 116.917 533.494 116.917C531.267 116.917 529.202 117.748 527.684 119.266C526.16 120.778 525.325 122.834 525.325 125.052C525.325 127.269 526.16 129.326 527.684 130.838C529.207 132.35 531.267 133.186 533.494 133.186C535.721 133.186 537.787 132.355 539.305 130.843C540.829 129.366 541.664 127.31 541.664 125.052C541.664 122.794 540.829 120.778 539.305 119.266ZM533.494 131.619C531.708 131.619 530.103 130.959 528.858 129.719C527.668 128.464 527.01 126.806 527.01 125.052C527.01 123.298 527.663 121.644 528.853 120.389C530.103 119.145 531.713 118.484 533.494 118.484C535.276 118.484 536.886 119.145 538.136 120.384C539.325 121.639 539.983 123.298 539.983 125.052C539.983 126.806 539.33 128.459 538.141 129.714C536.891 130.959 535.286 131.619 533.499 131.619H533.494Z" fill="white"/>
<path d="M536.85 123.48C536.85 121.973 535.756 121.131 533.924 121.131H530.401V128.711H532.163V125.974H533.398L535.195 128.711H537.169L535.088 125.586C536.217 125.198 536.85 124.462 536.85 123.48ZM533.676 124.639H532.163V122.532H533.676C534.521 122.532 535.012 122.92 535.012 123.585C535.012 124.286 534.557 124.639 533.676 124.639Z" fill="white"/>
<path d="M519.769 0H586.96L573.703 22.9133L586.96 45.8152H519.769V0Z" fill="white"/>
<path d="M11.55 232.266L11.55 205.68H1.344L1.344 202.026H26.208V205.68H16.002L16.002 232.266H11.55ZM30.2085 232.266L30.2085 202.026H34.5765L34.5765 232.266H30.2085ZM45.4125 232.266L45.4125 218.49C45.4125 217.006 45.0345 215.9 44.2785 215.172C43.5505 214.444 42.4585 214.08 41.0025 214.08C39.7425 214.08 38.6225 214.36 37.6425 214.92C36.6905 215.48 35.9345 216.25 35.3745 217.23C34.8425 218.21 34.5765 219.372 34.5765 220.716L34.0305 215.592C34.7305 213.996 35.8085 212.736 37.2645 211.812C38.7205 210.888 40.4145 210.426 42.3465 210.426C44.6425 210.426 46.4485 211.07 47.7645 212.358C49.0805 213.646 49.7385 215.354 49.7385 217.482L49.7385 232.266H45.4125ZM64.4992 232.686C62.3432 232.686 60.4392 232.21 58.7872 231.258C57.1632 230.306 55.8892 228.99 54.9652 227.31C54.0412 225.63 53.5792 223.698 53.5792 221.514C53.5792 219.302 54.0272 217.37 54.9232 215.718C55.8472 214.038 57.1352 212.736 58.7872 211.812C60.4392 210.888 62.3292 210.426 64.4572 210.426C66.5292 210.426 68.3212 210.874 69.8332 211.77C71.3732 212.638 72.5492 213.856 73.3612 215.424C74.2012 216.992 74.6212 218.854 74.6212 221.01C74.6212 221.346 74.6072 221.668 74.5792 221.976C74.5792 222.256 74.5512 222.55 74.4952 222.858H56.5192V219.582H71.4292L70.3372 220.884C70.3372 218.588 69.8192 216.838 68.7832 215.634C67.7472 214.43 66.3052 213.828 64.4572 213.828C62.4692 213.828 60.8872 214.514 59.7112 215.886C58.5632 217.23 57.9892 219.106 57.9892 221.514C57.9892 223.95 58.5632 225.854 59.7112 227.226C60.8872 228.598 62.5112 229.284 64.5832 229.284C65.8432 229.284 66.9352 229.032 67.8592 228.528C68.7832 227.996 69.4692 227.226 69.9172 226.218H74.0332C73.3332 228.234 72.1432 229.816 70.4632 230.964C68.8112 232.112 66.8232 232.686 64.4992 232.686ZM84.8124 232.266L96.1944 202.026H100.058L89.1804 232.266H84.8124ZM108.206 232.266L97.3284 202.026H101.402L112.826 232.266H108.206ZM90.5664 220.212L106.778 220.212V223.908L90.5664 223.908V220.212ZM122.413 232.686C120.985 232.686 119.725 232.392 118.633 231.804C117.541 231.188 116.687 230.348 116.071 229.284C115.483 228.22 115.189 227.002 115.189 225.63V210.846H119.557V224.622C119.557 226.106 119.921 227.212 120.649 227.94C121.377 228.668 122.413 229.032 123.757 229.032C124.961 229.032 126.025 228.752 126.949 228.192C127.901 227.632 128.643 226.862 129.175 225.882C129.735 224.874 130.015 223.712 130.015 222.396L130.561 227.52C129.861 229.088 128.783 230.348 127.327 231.3C125.899 232.224 124.261 232.686 122.413 232.686ZM130.183 232.266V227.226H130.015V210.846H134.341V232.266H130.183ZM148.949 232.686C146.457 232.686 144.623 232.112 143.447 230.964C142.299 229.788 141.725 228.066 141.725 225.798V205.932L146.051 204.294V225.84C146.051 226.96 146.345 227.786 146.933 228.318C147.521 228.85 148.473 229.116 149.789 229.116C150.293 229.116 150.741 229.074 151.133 228.99C151.525 228.906 151.861 228.808 152.141 228.696V232.224C151.833 232.364 151.399 232.476 150.839 232.56C150.279 232.644 149.649 232.686 148.949 232.686ZM137.441 214.332V210.846H152.141V214.332H137.441ZM164.612 232.686C162.428 232.686 160.51 232.21 158.858 231.258C157.206 230.278 155.918 228.948 154.994 227.268C154.07 225.56 153.608 223.628 153.608 221.472C153.608 219.288 154.07 217.37 154.994 215.718C155.946 214.066 157.234 212.778 158.858 211.854C160.51 210.902 162.428 210.426 164.612 210.426C166.824 210.426 168.756 210.902 170.408 211.854C172.06 212.778 173.334 214.066 174.23 215.718C175.154 217.37 175.616 219.288 175.616 221.472C175.616 223.628 175.154 225.56 174.23 227.268C173.334 228.948 172.06 230.278 170.408 231.258C168.756 232.21 166.824 232.686 164.612 232.686ZM164.612 229.116C165.928 229.116 167.062 228.794 168.014 228.15C168.994 227.506 169.764 226.61 170.324 225.462C170.884 224.314 171.164 222.97 171.164 221.43C171.164 219.134 170.548 217.328 169.316 216.012C168.112 214.668 166.544 213.996 164.612 213.996C162.708 213.996 161.14 214.668 159.908 216.012C158.704 217.356 158.102 219.162 158.102 221.43C158.102 222.97 158.368 224.314 158.9 225.462C159.46 226.61 160.23 227.506 161.21 228.15C162.218 228.794 163.352 229.116 164.612 229.116ZM179.683 232.266V210.846H183.841V215.886H184.051V232.266H179.683ZM194.887 232.266V218.49C194.887 217.006 194.509 215.9 193.753 215.172C193.025 214.444 191.933 214.08 190.477 214.08C189.217 214.08 188.097 214.36 187.117 214.92C186.165 215.48 185.409 216.25 184.849 217.23C184.317 218.21 184.051 219.372 184.051 220.716L183.505 215.592C184.205 213.996 185.283 212.736 186.739 211.812C188.195 210.888 189.889 210.426 191.821 210.426C194.117 210.426 195.923 211.07 197.239 212.358C198.555 213.646 199.213 215.354 199.213 217.482V232.266H194.887ZM214.057 232.686C211.873 232.686 209.955 232.21 208.303 231.258C206.651 230.278 205.363 228.948 204.439 227.268C203.515 225.56 203.053 223.628 203.053 221.472C203.053 219.288 203.515 217.37 204.439 215.718C205.391 214.066 206.679 212.778 208.303 211.854C209.955 210.902 211.873 210.426 214.057 210.426C216.269 210.426 218.201 210.902 219.853 211.854C221.505 212.778 222.779 214.066 223.675 215.718C224.599 217.37 225.061 219.288 225.061 221.472C225.061 223.628 224.599 225.56 223.675 227.268C222.779 228.948 221.505 230.278 219.853 231.258C218.201 232.21 216.269 232.686 214.057 232.686ZM214.057 229.116C215.373 229.116 216.507 228.794 217.459 228.15C218.439 227.506 219.209 226.61 219.769 225.462C220.329 224.314 220.609 222.97 220.609 221.43C220.609 219.134 219.993 217.328 218.761 216.012C217.557 214.668 215.989 213.996 214.057 213.996C212.153 213.996 210.585 214.668 209.353 216.012C208.149 217.356 207.547 219.162 207.547 221.43C207.547 222.97 207.813 224.314 208.345 225.462C208.905 226.61 209.675 227.506 210.655 228.15C211.663 228.794 212.797 229.116 214.057 229.116ZM229.128 232.266V210.846H233.286V215.886H233.496V232.266H229.128ZM243.576 232.266V218.28C243.576 216.824 243.24 215.76 242.568 215.088C241.896 214.416 240.93 214.08 239.67 214.08C238.494 214.08 237.43 214.36 236.478 214.92C235.554 215.452 234.826 216.208 234.294 217.188C233.762 218.14 233.496 219.274 233.496 220.59L232.95 215.592C233.65 213.996 234.7 212.736 236.1 211.812C237.528 210.888 239.124 210.426 240.888 210.426C243.016 210.426 244.71 211.042 245.97 212.274C247.258 213.506 247.902 215.13 247.902 217.146V232.266H243.576ZM258.024 232.266V218.28C258.024 216.824 257.674 215.76 256.974 215.088C256.302 214.416 255.336 214.08 254.076 214.08C252.928 214.08 251.878 214.36 250.926 214.92C250.002 215.452 249.26 216.208 248.7 217.188C248.168 218.14 247.902 219.274 247.902 220.59L247.02 215.592C247.748 213.996 248.84 212.736 250.296 211.812C251.78 210.888 253.432 210.426 255.252 210.426C257.408 210.426 259.13 211.056 260.418 212.316C261.706 213.548 262.35 215.2 262.35 217.272V232.266H258.024ZM277.12 232.686C274.936 232.686 273.018 232.21 271.366 231.258C269.714 230.278 268.426 228.948 267.502 227.268C266.578 225.56 266.116 223.628 266.116 221.472C266.116 219.288 266.578 217.37 267.502 215.718C268.454 214.066 269.742 212.778 271.366 211.854C273.018 210.902 274.936 210.426 277.12 210.426C279.332 210.426 281.264 210.902 282.916 211.854C284.568 212.778 285.842 214.066 286.738 215.718C287.662 217.37 288.124 219.288 288.124 221.472C288.124 223.628 287.662 225.56 286.738 227.268C285.842 228.948 284.568 230.278 282.916 231.258C281.264 232.21 279.332 232.686 277.12 232.686ZM277.12 229.116C278.436 229.116 279.57 228.794 280.522 228.15C281.502 227.506 282.272 226.61 282.832 225.462C283.392 224.314 283.672 222.97 283.672 221.43C283.672 219.134 283.056 217.328 281.824 216.012C280.62 214.668 279.052 213.996 277.12 213.996C275.216 213.996 273.648 214.668 272.416 216.012C271.212 217.356 270.61 219.162 270.61 221.43C270.61 222.97 270.876 224.314 271.408 225.462C271.968 226.61 272.738 227.506 273.718 228.15C274.726 228.794 275.86 229.116 277.12 229.116ZM299.162 232.686C297.734 232.686 296.474 232.392 295.382 231.804C294.29 231.188 293.436 230.348 292.82 229.284C292.232 228.22 291.938 227.002 291.938 225.63V210.846H296.306V224.622C296.306 226.106 296.67 227.212 297.398 227.94C298.126 228.668 299.162 229.032 300.506 229.032C301.71 229.032 302.774 228.752 303.698 228.192C304.65 227.632 305.392 226.862 305.924 225.882C306.484 224.874 306.764 223.712 306.764 222.396L307.31 227.52C306.61 229.088 305.532 230.348 304.076 231.3C302.648 232.224 301.01 232.686 299.162 232.686ZM306.932 232.266V227.226H306.764V210.846H311.09V232.266H306.932ZM324.354 232.686C321.554 232.686 319.328 232.07 317.676 230.838C316.024 229.606 315.086 227.87 314.862 225.63H318.894C319.09 226.862 319.65 227.814 320.574 228.486C321.526 229.13 322.814 229.452 324.438 229.452C325.866 229.452 326.958 229.2 327.714 228.696C328.47 228.192 328.848 227.478 328.848 226.554C328.848 225.882 328.624 225.322 328.176 224.874C327.756 224.398 326.916 224.006 325.656 223.698L322.212 222.9C320.056 222.368 318.446 221.584 317.382 220.548C316.346 219.484 315.828 218.182 315.828 216.642C315.828 214.71 316.542 213.198 317.97 212.106C319.426 210.986 321.414 210.426 323.934 210.426C326.426 210.426 328.428 210.986 329.94 212.106C331.48 213.226 332.348 214.794 332.544 216.81H328.512C328.344 215.802 327.854 215.032 327.042 214.5C326.258 213.94 325.18 213.66 323.808 213.66C322.52 213.66 321.526 213.898 320.826 214.374C320.154 214.822 319.818 215.452 319.818 216.264C319.818 216.936 320.07 217.496 320.574 217.944C321.106 218.392 321.974 218.77 323.178 219.078L326.706 219.96C328.75 220.464 330.29 221.29 331.326 222.438C332.362 223.558 332.88 224.916 332.88 226.512C332.88 228.444 332.124 229.956 330.612 231.048C329.128 232.14 327.042 232.686 324.354 232.686ZM347.691 232.266V228.822H356.721C358.429 228.822 359.759 228.36 360.711 227.436C361.691 226.512 362.181 225.252 362.181 223.656C362.181 221.976 361.663 220.632 360.627 219.624C359.619 218.616 358.233 218.112 356.469 218.112H347.691V214.752H356.049C357.757 214.752 359.073 214.346 359.997 213.534C360.949 212.694 361.425 211.504 361.425 209.964C361.425 208.508 360.977 207.402 360.081 206.646C359.213 205.862 357.925 205.47 356.217 205.47H347.691V202.026H356.889C359.633 202.026 361.817 202.698 363.441 204.042C365.065 205.358 365.877 207.164 365.877 209.46C365.877 210.916 365.541 212.204 364.869 213.324C364.225 214.416 363.329 215.27 362.181 215.886C361.033 216.474 359.731 216.768 358.275 216.768L358.485 215.886C360.053 215.886 361.453 216.25 362.685 216.978C363.917 217.678 364.897 218.644 365.625 219.876C366.353 221.108 366.717 222.536 366.717 224.16C366.717 225.756 366.325 227.17 365.541 228.402C364.785 229.634 363.707 230.586 362.307 231.258C360.907 231.93 359.283 232.266 357.435 232.266H347.691ZM344.415 232.266V202.026H348.867V232.266H344.415ZM369.223 232.266V228.612C372.163 226.204 374.613 224.104 376.573 222.312C378.561 220.52 380.143 218.924 381.319 217.524C382.495 216.124 383.335 214.85 383.839 213.702C384.343 212.554 384.595 211.406 384.595 210.258C384.595 208.69 384.133 207.472 383.209 206.604C382.313 205.708 381.067 205.26 379.471 205.26C377.819 205.26 376.475 205.75 375.439 206.73C374.403 207.682 373.759 209.04 373.507 210.804H368.971C369.251 208.032 370.329 205.806 372.205 204.126C374.109 202.446 376.615 201.606 379.723 201.606C382.691 201.606 385.029 202.39 386.737 203.958C388.473 205.526 389.341 207.682 389.341 210.426C389.341 211.826 389.075 213.226 388.543 214.626C388.039 215.998 387.199 217.44 386.023 218.952C384.847 220.436 383.265 222.088 381.277 223.908C379.317 225.7 376.881 227.744 373.969 230.04L372.919 228.612H389.887V232.266H369.223ZM406.887 232.686C404.787 232.686 402.841 232.308 401.049 231.552C399.257 230.768 397.703 229.69 396.387 228.318C395.099 226.918 394.091 225.266 393.363 223.362C392.635 221.458 392.271 219.372 392.271 217.104C392.271 214.836 392.621 212.764 393.321 210.888C394.049 208.984 395.057 207.346 396.345 205.974C397.661 204.574 399.215 203.496 401.007 202.74C402.799 201.984 404.745 201.606 406.845 201.606C409.197 201.606 411.311 202.082 413.187 203.034C415.063 203.958 416.589 205.274 417.765 206.982C418.969 208.69 419.711 210.678 419.991 212.946H415.623C415.259 210.566 414.293 208.718 412.725 207.402C411.185 206.058 409.239 205.386 406.887 205.386C404.899 205.386 403.135 205.876 401.595 206.856C400.083 207.808 398.907 209.166 398.067 210.93C397.227 212.666 396.807 214.724 396.807 217.104C396.807 219.456 397.227 221.528 398.067 223.32C398.935 225.084 400.125 226.456 401.637 227.436C403.149 228.416 404.899 228.906 406.887 228.906C409.239 228.906 411.199 228.248 412.767 226.932C414.363 225.588 415.329 223.726 415.665 221.346H420.075C419.767 223.642 419.011 225.644 417.807 227.352C416.603 229.032 415.063 230.348 413.187 231.3C411.339 232.224 409.239 232.686 406.887 232.686ZM445.587 232.686C443.487 232.686 441.541 232.308 439.749 231.552C437.957 230.768 436.403 229.69 435.087 228.318C433.799 226.918 432.791 225.266 432.063 223.362C431.335 221.458 430.971 219.372 430.971 217.104C430.971 214.836 431.321 212.764 432.021 210.888C432.749 208.984 433.757 207.346 435.045 205.974C436.361 204.574 437.915 203.496 439.707 202.74C441.499 201.984 443.445 201.606 445.545 201.606C447.897 201.606 450.011 202.082 451.887 203.034C453.763 203.958 455.289 205.274 456.465 206.982C457.669 208.69 458.411 210.678 458.691 212.946H454.323C453.959 210.566 452.993 208.718 451.425 207.402C449.885 206.058 447.939 205.386 445.587 205.386C443.599 205.386 441.835 205.876 440.295 206.856C438.783 207.808 437.607 209.166 436.767 210.93C435.927 212.666 435.507 214.724 435.507 217.104C435.507 219.456 435.927 221.528 436.767 223.32C437.635 225.084 438.825 226.456 440.337 227.436C441.849 228.416 443.599 228.906 445.587 228.906C447.939 228.906 449.899 228.248 451.467 226.932C453.063 225.588 454.029 223.726 454.365 221.346H458.775C458.467 223.642 457.711 225.644 456.507 227.352C455.303 229.032 453.763 230.348 451.887 231.3C450.039 232.224 447.939 232.686 445.587 232.686ZM463.023 232.266V202.026H474.951C477.135 202.026 478.997 202.39 480.537 203.118C482.077 203.818 483.267 204.812 484.107 206.1C484.947 207.36 485.367 208.858 485.367 210.594C485.367 212.33 484.947 213.842 484.107 215.13C483.267 216.418 482.077 217.426 480.537 218.154C478.997 218.882 477.135 219.246 474.951 219.246H466.383V215.634H474.825C476.841 215.634 478.367 215.2 479.403 214.332C480.467 213.436 480.999 212.204 480.999 210.636C480.999 209.068 480.481 207.85 479.445 206.982C478.409 206.114 476.869 205.68 474.825 205.68H467.475V232.266H463.023ZM480.495 232.266L465.753 217.02H471.171L486.879 232.266H480.495ZM490.372 232.266V202.026H497.26L507.34 231.174H505.072L515.068 202.026H522.04V232.266H517.63V203.832H518.302L508.558 232.266H503.602L493.858 204.084H494.53V232.266H490.372Z" fill="white"/>
</svg>
